<svg width="160" height="33" viewBox="0 0 160 33" fill="none" xmlns="http://www.w3.org/2000/svg">
<path d="M152.212 16.0435V10.5623H154.551C155.139 10.5623 155.566 10.6115 155.832 10.7098C156.099 10.8082 156.312 10.9837 156.472 11.2353C156.633 11.4868 156.713 11.775 156.713 12.0991C156.713 12.5102 156.591 12.8498 156.349 13.118C156.106 13.3861 155.743 13.5547 155.261 13.6245C155.501 13.764 155.699 13.9172 155.856 14.0842C156.012 14.2511 156.223 14.5478 156.488 14.9738L157.161 16.0429H155.832L155.028 14.8503C154.743 14.4238 154.548 14.1556 154.443 14.0447C154.338 13.9338 154.226 13.8578 154.109 13.8166C153.991 13.7754 153.805 13.7549 153.55 13.7549H153.325V16.0429H152.214L152.212 16.0435ZM153.324 12.8801H154.146C154.679 12.8801 155.011 12.8578 155.144 12.8126C155.277 12.7675 155.381 12.6903 155.456 12.5805C155.531 12.4708 155.568 12.3335 155.568 12.1695C155.568 11.9848 155.519 11.8361 155.42 11.7229C155.322 11.6097 155.182 11.5377 155.002 11.508C154.912 11.4954 154.641 11.4891 154.191 11.4891H153.324V12.8801Z" fill="#2B5787"/>
<path d="M154.633 18.5951C151.674 18.5951 149.267 16.1967 149.267 13.2494C149.267 10.3022 151.675 7.90381 154.633 7.90381C157.592 7.90381 160 10.3022 160 13.2494C160 16.1967 157.592 18.5951 154.633 18.5951ZM154.633 8.98951C152.276 8.98951 150.357 10.9002 150.357 13.2489C150.357 15.5975 152.276 17.5082 154.633 17.5082C156.991 17.5082 158.909 15.5975 158.909 13.2489C158.909 10.9002 156.991 8.98951 154.633 8.98951Z" fill="#2B5787"/>
<path fill-rule="evenodd" clip-rule="evenodd" d="M18.1162 0.875L36.2231 32.125L26.6074 26.5975L18.1185 31.4818L9.61971 26.5975L0 32.125L18.1162 0.875ZM24.8138 20.8243L21.2403 24.3838V26.8119L28.2392 22.7807L24.8167 20.8248L24.8138 20.8243ZM14.9949 26.8119V24.3838L11.4093 20.8243L7.99595 22.7801L14.9398 26.7782L14.9949 26.8091V26.8119ZM11.7847 18.7083L16.7553 23.6572V27.8148L18.1185 28.606L19.4816 27.8148V23.6572L24.4499 18.8444V13.6479L20.264 17.5505H15.9707L11.7847 13.6479V18.7083Z" fill="#2B5787"/>
<path d="M50.5844 24.951L49.5105 21.9157H42.5333L41.5146 24.951H37.898L43.8443 8.04902H47.9872L53.9766 24.951H50.5844ZM48.4051 18.7941L45.9462 11.887L43.6164 18.7941H48.4051ZM71.3316 15.8754V17.1789C71.3316 19.595 70.5591 21.5509 69.0019 23.0471C67.4568 24.5433 65.4496 25.2917 62.9907 25.2917C60.3717 25.2917 58.2044 24.4484 56.475 22.747C54.7577 21.0461 53.8991 18.973 53.8991 16.5237C53.8991 14.0744 54.7457 11.9682 56.4538 10.2696C58.1591 8.559 60.2759 7.7037 62.7973 7.7037C64.3855 7.7037 65.8233 8.06846 67.1336 8.78312C68.4423 9.50007 69.4634 10.4508 70.1929 11.6372L67.3368 13.2838C66.9276 12.588 66.318 12.0328 65.5024 11.5943C64.6868 11.1558 63.773 10.9414 62.7755 10.9414C61.1563 10.9414 59.8242 11.4657 58.7835 12.5234C57.7429 13.581 57.2166 14.908 57.2166 16.5214C57.2166 18.1349 57.7521 19.4304 58.8048 20.4669C59.8666 21.5035 61.2734 22.0277 63.012 22.0277C64.3109 22.0277 65.3848 21.7396 66.2314 21.1724C67.078 20.5961 67.6594 19.8146 67.9584 18.8089H62.818V15.8691H71.3282L71.3305 15.876L71.3316 15.8754ZM73.36 8.04902H76.7086V24.951H73.36V8.04902ZM82.8587 21.7653H89.341V24.951H79.5101V8.04902H82.8592L82.8587 21.7653ZM94.2249 21.7653H101.383V24.951H90.8758V8.04902H101.254V11.2347H94.2249V14.8371H100.655V17.9702H94.2249V21.7653ZM114.809 24.951L113.736 21.9157H106.758L105.739 24.951H102.123L108.068 8.04902H112.211L118.201 24.951H114.809ZM107.844 18.7941H112.621L110.174 11.887L107.844 18.7941ZM129.321 8.04902H132.67V24.951H130.125L122.848 14.613V24.951H119.5V8.04902H122.045L129.321 18.3441L129.321 8.04902ZM146.634 24.951L145.56 21.9157H138.583L137.564 24.951H133.947L139.893 8.04902H144.036L150.026 24.951H146.634ZM144.452 18.7941L141.994 11.887L139.664 18.7941H144.452Z" fill="#2B5787"/>
</svg>
