<?xml version="1.0" encoding="UTF-8"?>
<svg width="230" height="156" id="Ebene_1" xmlns="http://www.w3.org/2000/svg" version="1.1" xmlns:xlink="http://www.w3.org/1999/xlink" viewBox="0 0 747.27 363.93">
  <!-- Generator: Adobe Illustrator 29.8.2, SVG Export Plug-In . SVG Version: 2.1.1 Build 3)  -->
  <defs>
    <style>
      .st0 {
        fill: none;
      }

      .st1 {
        clip-path: url(#clippath-1);
      }

      .st2 {
        fill: #013438;
      }

      .st3 {
        clip-path: url(#clippath);
      }
    </style>
    <clipPath id="clippath">
      <rect class="st0" width="747.27" height="363.93"/>
    </clipPath>
    <clipPath id="clippath-1">
      <rect class="st0" width="747.27" height="363.93"/>
    </clipPath>
  </defs>
  <g class="st3">
    <g class="st1">
      <g>
        <path class="st2" d="M284.34,214.44l-18.76-122.33h-23.85l-24.22,71.41c-2.91,9.05-4.92,15.21-6.72,24.29h-.37c-1.47-7.99-3.81-16.14-6.72-25.02l-23.68-70.68h-23.68l-18.4,122.33h20.24l7.83-63.26c1.27-11.58,2.54-21.2,3.28-31.71h.37c1.47,8.88,4.55,19.4,7.83,28.98l22.04,65.95h20.57l23.15-71.05c3.11-9.05,4.92-17.04,6.39-23.93h.37c.9,7.99,1.81,16.87,3.81,29.92l9.67,65.06h20.94"/>
        <path class="st2" d="M374.28,177.47c0-38.23-53.72-29.18-53.72-53.64,0-10.15,7.83-17.2,23.11-17.2,7.29,0,15.12,1.26,22.24,3.43l1.07-17.57c-7.46-1.26-14.92-2.16-22.21-2.16-28.6,0-45.15,14.68-45.15,35.71,0,39.5,53.72,28.62,53.72,54.37,0,13.24-10.94,18.83-24.42,18.83-8.93,0-18.6-2-25.49-4.53l-1.1,18.67c7.09,1.83,15.85,2.9,24.78,2.9,29.33,0,47.16-16.31,47.16-38.77"/>
        <polyline class="st2" points="467.33 108.79 467.33 92.12 379.9 92.12 379.9 108.79 413.58 108.79 413.58 214.44 433.45 214.44 433.45 108.79 467.33 108.79"/>
        <path class="st2" d="M481.85,38.47c2.01.67,1.97-.3-.13-1.46C430.81,8.99,345.48-3.69,251.43,7.26,106.1,24.16-4.75,90.95,3.88,156.41c4.38,33.28,38.97,59.73,90.88,75.54,1.64.5,1.64,0,0-.73-33.31-15.27-54.69-36.17-58-61.16C28.37,106.42,139.38,41.07,284.68,24.16c75.99-8.85,146.17-2.63,197.17,14.34"/>
        <path class="st2" d="M154.93,340.59c0-4.49-2.34-8.35-7.93-8.35s-8.93,4.53-8.93,10.58c0,7.09,3.28,10.38,9.4,10.38,2.54,0,4.82-.43,6.72-1.23l-.3-2.6c-1.51.77-3.78,1.3-5.89,1.3-4.55,0-6.96-2.53-6.76-8.59h13.58c.07-.6.07-1.13.07-1.5h.04ZM151.76,339.83h-10.3c.5-3.16,2.54-5.26,5.39-5.26,3.11,0,4.98,2.13,4.92,5.26h0ZM164.87,332.61c-2.07-.07-4.78.03-6.59.3v1.76c1.17.07,2.58.23,3.55.4v17.8h3.04v-9.72c0-4.79,2.58-8.39,6.22-8.39,2.98,0,3.85,1.83,3.85,4.99v13.11h3.08v-14.11c0-3.59-1.47-6.52-6.12-6.52-3.51,0-6.09,2-7.29,4.92h-.07c.23-1.26.37-3.23.37-4.53h0l-.03-.03h0v.02ZM200.96,354.77v-21.86c-2.04-.37-4.38-.57-6.62-.57-6.56,0-10.6,4.09-10.6,11.31,0,6.36,2.74,9.55,7.53,9.55,3.14,0,5.72-1.86,6.89-4.79h.07c-.23,1.13-.3,2.33-.3,3.79v1.8c0,4.96-2.54,6.59-6.96,6.59-1.94,0-4.21-.43-5.89-1.1l-.23,3.09c1.61.43,3.55.73,5.82.73,8.66,0,10.3-5.06,10.3-8.55h-.01ZM197.91,342.32c0,3.63-2.01,8.35-6.05,8.35-3.34,0-4.92-2.73-4.92-7.29,0-6.09,2.78-8.62,6.96-8.62,1.3,0,2.64.13,4.01.43v7.12h0ZM213.23,326.88c0-1.13-.94-2.06-2.14-2.06s-2.07.93-2.07,2.06.94,2.06,2.07,2.06,2.14-.9,2.14-2.06h0ZM212.6,332.61c-2.07-.07-4.78.03-6.59.3v1.76c1.2.07,2.58.23,3.55.4v17.8h3.01v-20.23h0l.03-.03h0ZM224.27,332.61c-2.07-.07-4.78.03-6.59.3v1.76c1.17.07,2.58.23,3.55.4v17.8h3.01v-9.72c0-4.79,2.58-8.39,6.22-8.39,2.98,0,3.85,1.83,3.85,4.99v13.11h3.08v-14.11c0-3.59-1.47-6.52-6.12-6.52-3.51,0-6.09,2-7.29,4.92h-.07c.23-1.26.37-3.23.37-4.53h0v-.03h0v.02ZM259.99,340.59c0-4.49-2.34-8.35-7.93-8.35s-8.93,4.53-8.93,10.58c0,7.09,3.28,10.38,9.4,10.38,2.54,0,4.82-.43,6.72-1.23l-.3-2.6c-1.51.77-3.78,1.3-5.89,1.3-4.55,0-6.96-2.53-6.76-8.59h13.58c.1-.6.1-1.13.1-1.5h0ZM256.82,339.83h-10.3c.5-3.16,2.54-5.26,5.39-5.26,3.11,0,4.98,2.13,4.92,5.26h-.01ZM280.86,340.59c0-4.49-2.34-8.35-7.93-8.35s-8.93,4.53-8.93,10.58c0,7.09,3.28,10.38,9.4,10.38,2.54,0,4.82-.43,6.69-1.23l-.27-2.6c-1.51.77-3.78,1.3-5.89,1.3-4.55,0-6.96-2.53-6.76-8.59h13.58c.07-.6.07-1.13.07-1.5h.04ZM277.65,339.83h-10.3c.5-3.16,2.54-5.26,5.39-5.26,3.11,0,4.98,2.13,4.92,5.26h-.01ZM290.8,332.61c-2.07-.07-4.78.03-6.59.3v1.76c1.2.07,2.58.23,3.55.4v17.8h3.04v-8.09c0-6.79,2.17-10.22,6.62-9.48l.17-2.99c-4.28-.5-6.39,2.53-7.19,5.49h-.1c.33-1.8.5-3.79.5-5.12h0v-.07h0ZM307.22,326.88c0-1.13-.94-2.06-2.14-2.06s-2.07.93-2.07,2.06.94,2.06,2.07,2.06,2.14-.9,2.14-2.06h0ZM306.62,332.61c-2.07-.07-4.78.03-6.59.3v1.76c1.17.07,2.58.23,3.55.4v17.8h3.04v-20.23h0v-.03h0ZM318.29,332.61c-2.07-.07-4.78.03-6.59.3v1.76c1.2.07,2.58.23,3.58.4v17.8h3.01v-9.72c0-4.79,2.58-8.39,6.22-8.39,2.98,0,3.85,1.83,3.85,4.99v13.11h3.08v-14.11c0-3.59-1.47-6.52-6.12-6.52-3.51,0-6.09,2-7.29,4.92h-.07c.23-1.26.37-3.23.37-4.53h0l-.03-.03h0v.02ZM354.35,354.77v-21.86c-2.04-.37-4.38-.57-6.62-.57-6.56,0-10.6,4.09-10.6,11.31,0,6.36,2.74,9.55,7.53,9.55,3.14,0,5.72-1.86,6.86-4.79h.1c-.23,1.13-.3,2.33-.3,3.79v1.8c0,4.96-2.54,6.59-6.96,6.59-1.94,0-4.21-.43-5.89-1.1l-.23,3.09c1.61.43,3.55.73,5.82.73,8.66,0,10.3-5.06,10.3-8.55h0ZM351.34,342.32c0,3.63-2.01,8.35-6.05,8.35-3.34,0-4.92-2.73-4.92-7.29,0-6.09,2.78-8.62,6.96-8.62,1.3,0,2.68.13,4.01.43v7.12h0ZM383.18,323.29c-1.1-.23-2.21-.37-3.34-.37-4.88,0-7.69,2.6-7.69,8.25v1.43h-4.42v2.4h4.42v17.84h3.08v-17.84h6.02v-2.4h-6.02v-1.5c0-3.89,1.37-5.69,4.48-5.69,1.07,0,2.17.13,3.18.43l.3-2.56h0ZM401.51,342.39c0-7.42-4.05-10.15-9-10.15-6.09,0-9.7,4.79-9.7,10.58,0,7.09,3.51,10.38,8.96,10.38,6.02,0,9.73-4.79,9.73-10.81h.01ZM398.3,342.59c0,5.59-2.91,8.02-6.09,8.02-3.98,0-6.22-2.86-6.22-8.02s3.01-7.82,6.22-7.82c4.05,0,6.09,2.93,6.09,7.82h0ZM411.18,332.61c-2.07-.07-4.78.03-6.59.3v1.76c1.17.07,2.58.23,3.55.4v17.8h3.04v-8.09c0-6.79,2.17-10.22,6.62-9.48l.17-2.99c-4.28-.5-6.39,2.53-7.19,5.49h-.07c.33-1.8.5-3.79.5-5.12h0l-.03-.07h0ZM435.36,323.12c-2.07-.07-4.78.03-6.59.27v1.76c1.2.07,2.58.23,3.55.4v27.25h3.04v-29.72h0v.03h0ZM447.63,326.88c0-1.13-.94-2.06-2.14-2.06s-2.07.93-2.07,2.06.94,2.06,2.07,2.06,2.14-.9,2.14-2.06h0ZM447.03,332.61c-2.07-.07-4.78.03-6.59.3v1.76c1.2.07,2.58.23,3.58.4v17.8h3.04v-20.23h0l-.03-.03h0ZM466.7,323.29c-1.1-.23-2.21-.37-3.34-.37-4.88,0-7.69,2.6-7.69,8.25v1.43h-4.42v2.4h4.42v17.84h3.08v-17.84h6.02v-2.4h-6.02v-1.5c0-3.89,1.4-5.69,4.52-5.69,1.07,0,2.17.13,3.18.43l.3-2.56h-.05ZM483.39,340.59c0-4.49-2.34-8.35-7.93-8.35s-8.93,4.53-8.93,10.58c0,7.09,3.28,10.38,9.4,10.38,2.54,0,4.82-.43,6.72-1.23l-.27-2.6c-1.51.77-3.78,1.3-5.89,1.3-4.55,0-6.96-2.53-6.76-8.59h13.58c.07-.6.07-1.13.07-1.5h.01ZM480.21,339.83h-10.3c.5-3.16,2.54-5.26,5.39-5.26,3.11,0,4.98,2.13,4.92,5.26"/>
        <path class="st2" d="M177.74,297.9l-5.05-32.98h-6.42l-6.52,19.23c-.77,2.43-1.34,4.09-1.81,6.56h-.1c-.4-2.16-1.04-4.36-1.81-6.76l-6.39-19.03h-6.39l-4.95,32.98h5.45l2.11-17.04c.33-3.13.7-5.72.87-8.55h.1c.4,2.4,1.24,5.22,2.11,7.82l5.95,17.77h5.55l6.22-19.13c.84-2.43,1.34-4.59,1.71-6.46h.1c.23,2.16.5,4.53,1.04,8.05l2.61,17.54h5.65-.03ZM191.49,266.75c0-1.86-1.54-3.26-3.38-3.26s-3.34,1.46-3.34,3.26,1.51,3.26,3.34,3.26,3.38-1.46,3.38-3.26h0ZM190.72,273.64c-3.18-.13-6.72.03-9.47.33v3.23c1.44.1,3.08.3,4.28.5v20.23h5.22v-24.26h0l-.03-.03h0ZM214.64,297.07l-.43-4.46c-1.44.73-3.45,1.16-5.32,1.16-4.85,0-6.49-3.36-6.49-7.82,0-5.12,2.27-8.39,6.72-8.39,1.77,0,3.45.4,4.92.93l.54-4.53c-1.67-.5-3.48-.73-5.28-.73-8.4,0-12.38,5.62-12.38,13.34,0,8.65,4.58,11.71,10.84,11.71,2.71,0,5.25-.57,6.86-1.23h.03v.02ZM227.18,273.64c-3.01-.13-6.52.03-9.26.33v3.23c1.44.1,3.08.3,4.28.5v20.23h5.22v-9.88c0-7.29,2.41-10.65,7.26-9.78l.23-5.12c-4.58-.43-7.02,2.6-8.09,5.86h-.1c.3-1.86.5-3.99.5-5.36h-.04ZM260.76,285.32c0-8.55-4.62-12.18-11.14-12.18-7.43,0-12.17,5.62-12.17,12.94,0,8.55,4.42,12.31,11.2,12.31,7.22,0,12.14-5.62,12.14-13.08h-.03ZM255.34,285.65c0,5.62-2.84,8.25-6.22,8.25-4.08,0-6.22-2.9-6.22-8.35s3.08-8.02,6.29-8.02c4.18,0,6.19,2.93,6.19,8.12h-.04ZM296.68,287.95c0-10.32-14.48-7.85-14.48-14.48,0-2.73,2.11-4.63,6.22-4.63,1.97,0,4.08.33,5.99.93l.3-4.73c-2.01-.33-4.01-.6-5.99-.6-7.69,0-12.17,3.96-12.17,9.62,0,10.65,14.48,7.72,14.48,14.64,0,3.56-2.94,5.09-6.59,5.09-2.41,0-5.02-.53-6.89-1.23l-.3,5.02c1.91.5,4.28.77,6.69.77,7.89,0,12.71-4.39,12.71-10.45h0l.03.03h0v.02ZM322.37,273.64h-5.65l-3.48,9.88c-.9,2.43-1.91,5.62-2.41,7.59h-.03c-.54-2.06-1.14-4.19-1.91-6.36l-3.98-11.08h-5.89l9.13,24.26-.97,2.6c-1.54,4.16-2.91,5.29-5.35,5.29-1.14,0-2.11-.13-3.18-.53l-.4,4.59c.97.2,2.31.33,3.28.33,5.49,0,7.89-2.33,10.74-9.92l10.1-26.62h0v-.03h0ZM341.37,290.54c0-8.05-10.8-5.66-10.8-10.35,0-1.86,1.4-3.03,4.31-3.03,1.57,0,3.28.23,4.75.7l.13-4.26c-1.47-.23-3.14-.43-4.58-.43-6.62,0-10.07,3.33-10.07,7.52,0,8.39,10.7,5.46,10.7,10.35,0,2-1.97,3.23-4.82,3.23-1.87,0-3.78-.33-5.28-.8l-.13,4.46c1.51.3,3.34.5,5.15.5,6.52,0,10.6-3.33,10.6-7.85h0l.03-.03h0ZM360.54,297.83v-4.29c-.94.23-2.11.4-3.21.4-2.44,0-3.18-.97-3.18-4.59v-11.61h6.39v-4.06h-6.42v-9.15l-5.22,1.43v7.72h-4.68v4.06h4.68v13.24c0,5.42,1.57,7.42,6.79,7.42,1.61,0,3.45-.23,4.85-.53h0v-.03h0ZM385.82,283.66c0-5.76-3.01-10.52-9.97-10.52s-11.14,5.46-11.14,12.81c0,8.55,4.18,12.45,11.77,12.45,2.98,0,5.99-.53,8.43-1.56l-.5-4.16c-2.01.97-4.62,1.56-7.12,1.56-4.85,0-7.36-2.53-7.22-8.15h15.55c.1-.93.13-1.76.13-2.43h.07ZM380.57,282.42h-10.37c.43-3.26,2.51-5.42,5.45-5.42,3.11,0,5.02,2.1,4.92,5.42h0ZM428.9,297.9v-16.74c0-5.52-2.61-8.02-7.26-8.02s-7.12,2.9-8.19,5.22c-.4-2.16-1.97-5.22-6.72-5.22-3.78,0-6.82,2.06-8.3,5.29h-.07c.23-1.46.33-3.53.33-4.79-2.94-.13-6.52.03-9.3.33v3.23c1.44.1,3.08.3,4.28.5v20.23h5.22v-11.61c0-5.09,2.94-8.79,6.29-8.79,2.94,0,3.48,2.16,3.48,4.89v15.54h5.22v-11.61c0-5.32,3.14-8.79,6.29-8.79,2.81,0,3.48,1.9,3.48,4.92v15.47h5.25v-.07h0v.02ZM451.68,290.54c0-8.05-10.8-5.66-10.8-10.35,0-1.86,1.44-3.03,4.31-3.03,1.57,0,3.28.23,4.75.7l.13-4.26c-1.47-.23-3.14-.43-4.58-.43-6.62,0-10.07,3.33-10.07,7.52,0,8.39,10.7,5.46,10.7,10.35,0,2-1.97,3.23-4.82,3.23-1.87,0-3.78-.33-5.28-.8l-.17,4.46c1.54.3,3.34.5,5.15.5,6.52,0,10.6-3.33,10.6-7.85h0l.07-.03h0ZM488.17,269.45v-4.49h-23.55v4.49h9.06v28.48h5.35v-28.48h9.14ZM508.54,283.66c0-5.76-2.98-10.52-9.97-10.52s-11.14,5.46-11.14,12.81c0,8.55,4.18,12.45,11.77,12.45,2.98,0,5.99-.53,8.43-1.56l-.5-4.16c-2.01.97-4.62,1.56-7.12,1.56-4.85,0-7.36-2.53-7.22-8.15h15.55c.1-.93.13-1.76.13-2.43h.07ZM503.29,282.42h-10.37c.43-3.26,2.51-5.42,5.45-5.42s5.02,2.1,4.92,5.42h0ZM530.75,297.07l-.43-4.46c-1.44.73-3.45,1.16-5.32,1.16-4.85,0-6.49-3.36-6.49-7.82,0-5.12,2.27-8.39,6.72-8.39,1.77,0,3.45.4,4.92.93l.54-4.53c-1.67-.5-3.48-.73-5.32-.73-8.4,0-12.38,5.62-12.38,13.34,0,8.65,4.55,11.71,10.84,11.71,2.71,0,5.25-.57,6.89-1.23h.03v.02ZM536.94,266.32v31.61h5.25v-11.68c0-4.89,2.71-8.75,6.39-8.75,2.78,0,3.61,1.76,3.61,4.79v15.64h5.25v-17c0-4.29-1.77-7.75-7.33-7.75-3.98,0-6.89,2-8.3,5.02h-.1c.33-1.36.43-3.43.43-4.93v-10.98c-3.18-.13-6.79.03-9.53.33v3.23c1.44.1,3.08.3,4.28.5h0l.03-.03h.02ZM572.03,273.64c-2.98-.13-6.52.03-9.26.33v3.23c1.44.1,3.11.3,4.28.5v20.23h5.22v-11.71c0-4.83,2.74-8.69,6.39-8.69,2.84,0,3.68,1.76,3.68,4.79v15.64h5.18v-17c0-4.29-1.77-7.75-7.33-7.75-4.08,0-7.02,2.16-8.46,5.29h-.1c.23-1.43.4-3.53.4-4.79h0v-.07h0ZM616.91,285.32c0-8.55-4.62-12.18-11.14-12.18-7.39,0-12.17,5.62-12.17,12.94,0,8.55,4.42,12.31,11.2,12.31,7.22,0,12.11-5.62,12.11-13.08h0ZM611.49,285.65c0,5.62-2.84,8.25-6.22,8.25-4.08,0-6.22-2.9-6.22-8.35s3.08-8.02,6.29-8.02c4.18,0,6.19,2.93,6.19,8.12h-.04ZM628.62,262.26c-3.18-.13-6.76.03-9.53.33v3.23c1.4.1,3.08.3,4.28.5v31.61h5.25v-35.64h0v-.03h0ZM658.05,285.32c0-8.55-4.62-12.18-11.14-12.18-7.43,0-12.17,5.62-12.17,12.94,0,8.55,4.42,12.31,11.2,12.31,7.22,0,12.11-5.62,12.11-13.08h0ZM652.63,285.65c0,5.62-2.84,8.25-6.22,8.25-4.08,0-6.25-2.9-6.25-8.35s3.11-8.02,6.29-8.02c4.18,0,6.19,2.93,6.19,8.12h-.01ZM683.91,299.26v-25.36c-2.54-.43-5.42-.67-8.53-.67-8.3,0-13.11,5.36-13.11,13.71,0,7.49,3.28,11.38,9.06,11.38,3.45,0,6.29-1.9,7.63-4.99h.1c-.23,1.33-.3,2.53-.3,3.96v1.6c0,5.02-2.64,6.79-7.53,6.79-2.37,0-5.12-.6-7.22-1.43l-.4,4.99c2.01.6,4.52.93,7.22.93,10.7,0,13.08-5.86,13.08-10.95h0v.03h0ZM678.69,285.25c0,4.26-2.14,8.79-6.09,8.79-3.28,0-4.82-2.7-4.82-7.55,0-6.56,2.84-9.08,7.02-9.08,1.34,0,2.61.13,3.88.43v7.42h.01ZM699.43,266.75c0-1.86-1.54-3.26-3.38-3.26s-3.34,1.46-3.34,3.26,1.54,3.26,3.34,3.26,3.38-1.46,3.38-3.26h0ZM698.62,273.64c-3.21-.13-6.72.03-9.47.33v3.23c1.4.1,3.11.3,4.28.5v20.23h5.22v-24.26h0l-.03-.03h0ZM725.92,283.66c0-5.76-2.98-10.52-9.97-10.52s-11.14,5.46-11.14,12.81c0,8.55,4.18,12.45,11.77,12.45,2.98,0,5.99-.53,8.43-1.56l-.5-4.16c-2.01.97-4.62,1.56-7.12,1.56-4.88,0-7.36-2.53-7.22-8.15h15.55c.1-.93.13-1.76.13-2.43h.07,0ZM720.67,282.42h-10.37c.43-3.26,2.51-5.42,5.45-5.42,3.11,0,5.02,2.1,4.92,5.42h0ZM746.99,290.54c0-8.05-10.8-5.66-10.8-10.35,0-1.86,1.4-3.03,4.31-3.03,1.57,0,3.28.23,4.75.7l.13-4.26c-1.47-.23-3.14-.43-4.55-.43-6.62,0-10.07,3.33-10.07,7.52,0,8.39,10.7,5.46,10.7,10.35,0,2-1.97,3.23-4.82,3.23-1.87,0-3.78-.33-5.28-.8l-.17,4.46c1.54.3,3.34.5,5.15.5,6.52,0,10.6-3.33,10.6-7.85"/>
      </g>
    </g>
  </g>
</svg>